<svg id="Layer_1" data-name="Layer 1" xmlns="http://www.w3.org/2000/svg" xmlns:xlink="http://www.w3.org/1999/xlink" viewBox="0 0 241.48 171.34"><defs><style>.cls-1{fill:none;}.cls-2{fill:#fff;}.cls-3{isolation:isolate;}.cls-4{clip-path:url(#clip-path);}.cls-5{clip-path:url(#clip-path-2);}.cls-6{clip-path:url(#clip-path-3);}.cls-7{fill:#d61100;}.cls-8{clip-path:url(#clip-path-4);}.cls-9{clip-path:url(#clip-path-5);}.cls-10{clip-path:url(#clip-path-6);}.cls-11{clip-path:url(#clip-path-7);}.cls-12{clip-path:url(#clip-path-8);}.cls-13{clip-path:url(#clip-path-9);}.cls-14{fill:#2200da;}.cls-15{clip-path:url(#clip-path-10);}.cls-16{fill:#00ec0f;}.cls-17{clip-path:url(#clip-path-11);}.cls-18{clip-path:url(#clip-path-12);}.cls-19{clip-path:url(#clip-path-13);}.cls-20{clip-path:url(#clip-path-14);}</style><clipPath id="clip-path"><rect class="cls-1" x="186.01" y="132.85" width="15.44" height="15.62" transform="translate(-15.63 256.8) rotate(-65)"/></clipPath><clipPath id="clip-path-2"><rect class="cls-1" x="233.69" y="143.05" width="7.04" height="6.13" transform="translate(4.54 299.35) rotate(-65)"/></clipPath><clipPath id="clip-path-3"><rect class="cls-1" x="159.4" y="114.8" width="15.93" height="15.87" transform="translate(-14.6 222.55) rotate(-65)"/></clipPath><clipPath id="clip-path-4"><rect class="cls-1" x="212.71" y="113.41" width="9.37" height="9.5" transform="translate(18.43 265.25) rotate(-65)"/></clipPath><clipPath id="clip-path-5"><rect class="cls-1" x="215.03" y="74.03" width="11.85" height="12.16" transform="translate(54.97 246.5) rotate(-65)"/></clipPath><clipPath id="clip-path-6"><rect class="cls-1" x="186.21" y="70.33" width="14.2" height="13.99" transform="translate(41.53 219.85) rotate(-65)"/></clipPath><clipPath id="clip-path-7"><rect class="cls-1" x="208.31" y="60.85" width="7.33" height="7.92" transform="translate(63.66 229.54) rotate(-65)"/></clipPath><clipPath id="clip-path-8"><rect class="cls-1" x="219.82" y="96.16" width="11.08" height="11.72" transform="translate(37.66 263.14) rotate(-65)"/></clipPath><clipPath id="clip-path-9"><rect class="cls-1" x="211.88" y="134.34" width="11.08" height="11.72" transform="translate(-1.53 277.99) rotate(-65)"/></clipPath><clipPath id="clip-path-10"><rect class="cls-1" x="195.52" y="92.69" width="11.08" height="11.72" transform="translate(26.77 239.13) rotate(-65)"/></clipPath><clipPath id="clip-path-11"><rect class="cls-1" x="193.44" y="117.4" width="9.9" height="10.16" transform="translate(3.54 250.52) rotate(-65)"/></clipPath><clipPath id="clip-path-12"><rect class="cls-1" x="181.65" y="106.57" width="7.6" height="8.25" transform="translate(6.75 231.99) rotate(-65)"/></clipPath><clipPath id="clip-path-13"><rect class="cls-1" x="169.74" y="132.79" width="10.6" height="10.28" transform="translate(-23.94 238.28) rotate(-65)"/></clipPath><clipPath id="clip-path-14"><rect class="cls-1" x="229.76" y="123.92" width="7.6" height="8.24" transform="translate(18.81 285.61) rotate(-65)"/></clipPath></defs><title>design_logo</title><rect class="cls-2" x="103.82" y="121.73" width="15.19" height="14.63" transform="translate(-17.63 240.46) rotate(-90)"/><rect class="cls-2" x="121.17" y="121.73" width="15.19" height="14.63" transform="translate(-0.28 257.81) rotate(-90)"/><rect class="cls-2" x="86.47" y="121.73" width="15.19" height="14.63" transform="translate(-34.98 223.11) rotate(-90)"/><rect class="cls-2" x="69.12" y="121.73" width="15.19" height="14.63" transform="translate(-52.33 205.76) rotate(-90)"/><rect class="cls-2" x="103.25" y="139.08" width="15.19" height="14.63" transform="translate(-35.55 257.24) rotate(-90)"/><rect class="cls-2" x="86.18" y="139.08" width="15.19" height="14.63" transform="translate(-52.62 240.17) rotate(-90)"/><rect class="cls-2" x="103.25" y="156.43" width="15.19" height="14.63" transform="translate(-52.9 274.59) rotate(-90)"/><rect class="cls-2" x="120.31" y="156.43" width="15.19" height="14.63" transform="translate(-35.84 291.65) rotate(-90)"/><rect class="cls-2" x="86.18" y="156.43" width="15.19" height="14.63" transform="translate(-69.97 257.52) rotate(-90)"/><rect class="cls-2" x="69.12" y="156.43" width="15.19" height="14.63" transform="translate(-87.03 240.46) rotate(-90)"/><rect class="cls-2" x="34.42" y="121.73" width="15.19" height="14.63" transform="translate(-87.03 171.06) rotate(-90)"/><rect class="cls-2" x="51.77" y="121.73" width="15.19" height="14.63" transform="translate(-69.68 188.41) rotate(-90)"/><rect class="cls-2" x="17.07" y="121.73" width="15.19" height="14.63" transform="translate(-104.38 153.71) rotate(-90)"/><rect class="cls-2" x="-0.28" y="121.73" width="15.19" height="14.63" transform="translate(-121.73 136.36) rotate(-90)"/><g class="cls-3"><g class="cls-4"><polyline class="cls-2" points="187.62 135.3 188.15 146.58 199.86 146.02 199.32 134.75 187.62 135.3"/></g></g><g class="cls-3"><g class="cls-5"><polyline class="cls-2" points="235.92 141.63 232.95 148.01 238.5 150.6 241.48 144.22 235.92 141.63"/></g></g><g class="cls-3"><g class="cls-6"><polyline class="cls-7" points="160.55 118.56 163.46 129.7 174.17 126.9 171.28 115.77 160.55 118.56"/></g></g><rect class="cls-2" x="138.52" y="121.73" width="15.19" height="14.63" transform="translate(17.07 275.16) rotate(-90)"/><rect class="cls-2" x="103.35" y="0.28" width="15.19" height="14.63" transform="translate(103.35 118.54) rotate(-90)"/><rect class="cls-2" x="120.62" y="0.28" width="15.19" height="14.63" transform="translate(120.62 135.81) rotate(-90)"/><rect class="cls-2" x="86.08" y="0.28" width="15.19" height="14.63" transform="translate(86.08 101.27) rotate(-90)"/><rect class="cls-2" x="68.81" y="0.28" width="15.19" height="14.63" transform="translate(68.81 84) rotate(-90)"/><rect class="cls-2" x="34.26" y="0.28" width="15.19" height="14.63" transform="translate(34.26 49.45) rotate(-90)"/><rect class="cls-2" x="51.54" y="0.28" width="15.19" height="14.63" transform="translate(51.54 66.72) rotate(-90)"/><rect class="cls-2" x="16.99" y="0.28" width="15.19" height="14.63" transform="translate(16.99 32.18) rotate(-90)"/><rect class="cls-2" x="-0.28" y="0.28" width="15.19" height="14.63" transform="translate(-0.28 14.91) rotate(-90)"/><rect class="cls-2" x="172.44" y="0.28" width="15.19" height="14.63" transform="translate(172.44 187.63) rotate(-90)"/><rect class="cls-2" x="189.71" y="0.28" width="15.19" height="14.63" transform="translate(189.71 204.9) rotate(-90)"/><rect class="cls-2" x="155.17" y="0.28" width="15.19" height="14.63" transform="translate(155.17 170.36) rotate(-90)"/><rect class="cls-2" x="137.9" y="0.28" width="15.19" height="14.63" transform="translate(137.9 153.09) rotate(-90)"/><rect class="cls-2" x="-0.28" y="104.38" width="15.19" height="14.63" transform="translate(-104.38 119.01) rotate(-90)"/><rect class="cls-2" x="-0.28" y="87.03" width="15.19" height="14.63" transform="translate(-87.03 101.66) rotate(-90)"/><rect class="cls-2" x="-0.28" y="69.68" width="15.19" height="14.63" transform="translate(-69.68 84.31) rotate(-90)"/><rect class="cls-2" x="-0.28" y="52.33" width="15.19" height="14.63" transform="translate(-52.33 66.96) rotate(-90)"/><rect class="cls-2" x="-0.28" y="34.98" width="15.19" height="14.63" transform="translate(-34.98 49.61) rotate(-90)"/><rect class="cls-2" x="-0.28" y="17.63" width="15.19" height="14.63" transform="translate(-17.63 32.26) rotate(-90)"/><g class="cls-3"><g class="cls-8"><polyline class="cls-2" points="212.34 117.75 217.17 123.23 222.44 118.57 217.61 113.09 212.34 117.75"/></g></g><g class="cls-3"><g class="cls-9"><polyline class="cls-2" points="217.13 73.92 214.63 83.69 224.78 86.29 227.28 76.52 217.13 73.92"/></g></g><g class="cls-3"><g class="cls-10"><polyline class="cls-2" points="185.74 76.99 192.7 84.87 200.88 77.66 193.93 69.78 185.74 76.99"/></g></g><g class="cls-3"><g class="cls-11"><polyline class="cls-2" points="209.81 60.09 207.1 66.58 214.15 69.53 216.87 63.04 209.81 60.09"/></g></g><rect class="cls-2" x="189.71" y="34.98" width="15.19" height="14.63" transform="translate(155.01 239.6) rotate(-90)"/><rect class="cls-2" x="189.71" y="17.63" width="15.19" height="14.63" transform="translate(172.36 222.25) rotate(-90)"/><g class="cls-3"><g class="cls-12"><polyline class="cls-2" points="222.39 94.52 217.7 104.56 228.32 109.51 233.01 99.47 222.39 94.52"/></g></g><g class="cls-3"><g class="cls-13"><polyline class="cls-14" points="214.45 132.7 209.77 142.74 220.39 147.69 225.07 137.65 214.45 132.7"/></g></g><g class="cls-3"><g class="cls-15"><polyline class="cls-16" points="198.1 91.06 193.41 101.1 204.03 106.05 208.72 96.01 198.1 91.06"/></g></g><g class="cls-3"><g class="cls-17"><polyline class="cls-2" points="194.71 118.33 194.04 125.91 202.06 126.61 202.73 119.04 194.71 118.33"/></g></g><g class="cls-3"><g class="cls-18"><polyline class="cls-2" points="183.32 105.51 180.1 112.4 187.58 115.89 190.8 109 183.32 105.51"/></g></g><g class="cls-3"><g class="cls-19"><polyline class="cls-2" points="169.43 137.8 174.47 143.51 180.65 138.05 175.62 132.35 169.43 137.8"/></g></g><g class="cls-3"><g class="cls-20"><polyline class="cls-2" points="231.44 122.86 228.22 129.75 235.69 133.23 238.91 126.34 231.44 122.86"/></g></g><path class="cls-2" d="M55,47.45a11.64,11.64,0,0,1-.73,4.22,9.37,9.37,0,0,1-2.07,3.26A9.24,9.24,0,0,1,49,57a11.23,11.23,0,0,1-4.16.74H37.12V37.12h7.71a11.25,11.25,0,0,1,4.16.74A9.2,9.2,0,0,1,52.2,40a9.44,9.44,0,0,1,2.07,3.26A11.64,11.64,0,0,1,55,47.45Zm-2.87,0a10.38,10.38,0,0,0-.52-3.4,7.17,7.17,0,0,0-1.47-2.54,6.27,6.27,0,0,0-2.3-1.58,8,8,0,0,0-3-.55H39.91V55.5h4.91a8,8,0,0,0,3-.55,6.31,6.31,0,0,0,2.3-1.58,7.09,7.09,0,0,0,1.47-2.53A10.37,10.37,0,0,0,52.14,47.45Z"/><path class="cls-2" d="M72.81,43.17V57.77H71.28a.65.65,0,0,1-.69-.53l-.2-1.57a8,8,0,0,1-2.13,1.69,5.59,5.59,0,0,1-2.71.64,5.26,5.26,0,0,1-2.11-.4,4.19,4.19,0,0,1-1.53-1.12A4.75,4.75,0,0,1,61,54.74a7.77,7.77,0,0,1-.31-2.26V43.17h2.56v9.31A3.9,3.9,0,0,0,64,55,2.84,2.84,0,0,0,66.3,56a4.36,4.36,0,0,0,2.12-.54,6.76,6.76,0,0,0,1.82-1.49V43.17Z"/><path class="cls-2" d="M82.07,36.55V49h.66a1.29,1.29,0,0,0,.48-.08,1.17,1.17,0,0,0,.41-.32l4.61-4.94a1.75,1.75,0,0,1,.42-.38,1.14,1.14,0,0,1,.6-.14h2.32l-5.37,5.72a3.26,3.26,0,0,1-.84.76,2.69,2.69,0,0,1,.47.4,3.8,3.8,0,0,1,.4.51l5.7,7.2H89.65a1.36,1.36,0,0,1-.57-.11.94.94,0,0,1-.41-.4l-4.8-6a1.14,1.14,0,0,0-.42-.4,1.64,1.64,0,0,0-.64-.09h-.74v7H79.49V36.55Z"/><path class="cls-2" d="M107.77,55.72a4.88,4.88,0,0,1-1.14,1,7.06,7.06,0,0,1-1.42.7,9,9,0,0,1-1.56.41,9.56,9.56,0,0,1-1.6.14,7.43,7.43,0,0,1-2.79-.51,6.11,6.11,0,0,1-2.2-1.5,6.87,6.87,0,0,1-1.45-2.44,9.92,9.92,0,0,1-.52-3.34,8.5,8.5,0,0,1,.47-2.85A6.72,6.72,0,0,1,96.91,45a6.19,6.19,0,0,1,2.15-1.53,7,7,0,0,1,2.85-.55,6.57,6.57,0,0,1,2.43.44,5.49,5.49,0,0,1,1.93,1.27,5.82,5.82,0,0,1,1.27,2,7.79,7.79,0,0,1,.46,2.77,1.67,1.67,0,0,1-.13.81.54.54,0,0,1-.49.2H97.63A8.54,8.54,0,0,0,98,52.88,4.83,4.83,0,0,0,99,54.59a3.81,3.81,0,0,0,1.44,1,5,5,0,0,0,1.87.34,5.48,5.48,0,0,0,1.66-.22,7.89,7.89,0,0,0,1.2-.48,9.29,9.29,0,0,0,.84-.48,1.12,1.12,0,0,1,.58-.22.56.56,0,0,1,.49.25Zm-2.07-6.84a5.07,5.07,0,0,0-.25-1.64,3.68,3.68,0,0,0-.73-1.28,3.28,3.28,0,0,0-1.17-.84A4.44,4.44,0,0,0,99,45.9a5,5,0,0,0-1.33,3Z"/><path class="cls-2" d="M86,81.24a12.21,12.21,0,0,1-.83,4.56,10.24,10.24,0,0,1-5.93,5.9,12.72,12.72,0,0,1-4.68.83H66V70h8.6a12.62,12.62,0,0,1,4.68.84,10.57,10.57,0,0,1,3.61,2.33,10.39,10.39,0,0,1,2.33,3.57A12.21,12.21,0,0,1,86,81.24Zm-4.31,0a10.51,10.51,0,0,0-.49-3.33,6.91,6.91,0,0,0-1.42-2.5,6.21,6.21,0,0,0-2.25-1.57,7.71,7.71,0,0,0-3-.55H70.19v15.9h4.39a7.7,7.7,0,0,0,3-.55,6.2,6.2,0,0,0,2.25-1.57,6.91,6.91,0,0,0,1.42-2.5A10.51,10.51,0,0,0,81.72,81.24Z"/><path class="cls-2" d="M94.72,85a7.59,7.59,0,0,0,.44,2.13,4.35,4.35,0,0,0,.91,1.48,3.54,3.54,0,0,0,1.33.87,4.85,4.85,0,0,0,1.71.29,5.29,5.29,0,0,0,1.62-.22,7.54,7.54,0,0,0,1.19-.48l.89-.48a1.5,1.5,0,0,1,.74-.22.8.8,0,0,1,.72.36l1.11,1.41a6.42,6.42,0,0,1-1.44,1.26,8,8,0,0,1-1.66.81,9.09,9.09,0,0,1-1.76.43,12.67,12.67,0,0,1-1.74.13,8.55,8.55,0,0,1-3.11-.55,6.94,6.94,0,0,1-2.5-1.64,7.69,7.69,0,0,1-1.67-2.69,10.39,10.39,0,0,1-.61-3.71,8.87,8.87,0,0,1,.53-3.08,7.42,7.42,0,0,1,1.52-2.51,7.17,7.17,0,0,1,2.42-1.69,8,8,0,0,1,3.22-.62,7.85,7.85,0,0,1,2.79.48,6.09,6.09,0,0,1,2.2,1.41A6.56,6.56,0,0,1,105,80.44a8.49,8.49,0,0,1,.52,3.08,2.5,2.5,0,0,1-.19,1.18.78.78,0,0,1-.72.3Zm7.35-2.33a4.66,4.66,0,0,0-.21-1.41,3.37,3.37,0,0,0-.63-1.16,2.94,2.94,0,0,0-1.07-.79A3.68,3.68,0,0,0,98.66,79,3.57,3.57,0,0,0,96,80a4.67,4.67,0,0,0-1.23,2.7Z"/><path class="cls-2" d="M121.05,79.63a1,1,0,0,1-.33.35.85.85,0,0,1-.44.1,1.37,1.37,0,0,1-.6-.16l-.74-.35a6.77,6.77,0,0,0-1-.35,4.61,4.61,0,0,0-1.27-.16,2.93,2.93,0,0,0-1.79.48,1.51,1.51,0,0,0-.65,1.26,1.21,1.21,0,0,0,.34.87,3,3,0,0,0,.89.62,8.68,8.68,0,0,0,1.26.48q.7.21,1.43.46t1.43.57a5,5,0,0,1,1.26.81,3.58,3.58,0,0,1,1.23,2.83,5.4,5.4,0,0,1-.41,2.13,4.61,4.61,0,0,1-1.23,1.69,5.78,5.78,0,0,1-2,1.11,9.4,9.4,0,0,1-4.37.25,9.52,9.52,0,0,1-1.51-.41,8.34,8.34,0,0,1-1.34-.62,6.49,6.49,0,0,1-1.09-.78l.89-1.47a1.26,1.26,0,0,1,.41-.41,1.14,1.14,0,0,1,.59-.14,1.25,1.25,0,0,1,.68.2l.74.44a6.55,6.55,0,0,0,1,.44,4.35,4.35,0,0,0,1.44.2,3.74,3.74,0,0,0,1.18-.16,2.48,2.48,0,0,0,.81-.43,1.61,1.61,0,0,0,.47-.62,1.85,1.85,0,0,0,.15-.73,1.3,1.3,0,0,0-.34-.92,3,3,0,0,0-.89-.62,8.58,8.58,0,0,0-1.27-.48l-1.45-.46a13.44,13.44,0,0,1-1.45-.59,5,5,0,0,1-1.26-.85,3.85,3.85,0,0,1-.89-1.27,4.41,4.41,0,0,1-.34-1.81,4.61,4.61,0,0,1,.39-1.87,4.4,4.4,0,0,1,1.15-1.55A5.7,5.7,0,0,1,114,76.66a7.88,7.88,0,0,1,2.62-.4,8,8,0,0,1,3,.55,6.82,6.82,0,0,1,2.26,1.44Z"/><path class="cls-2" d="M132.37,71.84a2.2,2.2,0,0,1-.2.94,2.55,2.55,0,0,1-1.33,1.29,2.42,2.42,0,0,1-1,.19,2.32,2.32,0,0,1-.94-.19,2.49,2.49,0,0,1-1.3-1.29,2.27,2.27,0,0,1-.2-.94,2.41,2.41,0,0,1,.2-1,2.47,2.47,0,0,1,.52-.78,2.5,2.5,0,0,1,.77-.52,2.32,2.32,0,0,1,.94-.2,2.42,2.42,0,0,1,1,.2,2.57,2.57,0,0,1,.79.52,2.52,2.52,0,0,1,.54.78A2.34,2.34,0,0,1,132.37,71.84Zm-.53,4.67v16H128v-16Z"/><path class="cls-2" d="M152.67,77.06v1.44q0,.69-.83.84l-1.44.27a4.87,4.87,0,0,1,.33,1.81,4.69,4.69,0,0,1-1.8,3.78,6.18,6.18,0,0,1-2,1,8.09,8.09,0,0,1-2.48.37,8.49,8.49,0,0,1-.91,0q-.44,0-.86-.12-.75.45-.75,1a.75.75,0,0,0,.45.71,3.65,3.65,0,0,0,1.18.32,16.59,16.59,0,0,0,1.67.12q.94,0,1.92.1a15.36,15.36,0,0,1,1.92.27,5.63,5.63,0,0,1,1.67.62,3.27,3.27,0,0,1,1.18,1.15,3.52,3.52,0,0,1,.45,1.87,4.39,4.39,0,0,1-.52,2.06,5.55,5.55,0,0,1-1.52,1.78,7.9,7.9,0,0,1-2.44,1.26,10.49,10.49,0,0,1-3.29.48,12.54,12.54,0,0,1-3.15-.35,7.49,7.49,0,0,1-2.23-.94,4,4,0,0,1-1.33-1.35,3.17,3.17,0,0,1-.44-1.59,2.71,2.71,0,0,1,.68-1.88A4.71,4.71,0,0,1,140,90.84a2.69,2.69,0,0,1-1-.87,2.49,2.49,0,0,1-.37-1.44,2.26,2.26,0,0,1,.13-.74,3.18,3.18,0,0,1,.39-.76,3.74,3.74,0,0,1,.65-.71,4.49,4.49,0,0,1,.92-.6A5.06,5.06,0,0,1,138.81,84a4.67,4.67,0,0,1-.69-2.56,4.76,4.76,0,0,1,.48-2.15,4.81,4.81,0,0,1,1.33-1.64,6.06,6.06,0,0,1,2-1,9.08,9.08,0,0,1,4.47-.15,6.6,6.6,0,0,1,1.65.62Zm-3.84,16.19a1.07,1.07,0,0,0-.28-.77,1.85,1.85,0,0,0-.77-.46,5.67,5.67,0,0,0-1.13-.24q-.65-.08-1.37-.12l-1.5-.07q-.77,0-1.51-.12a3.62,3.62,0,0,0-1,.84,1.72,1.72,0,0,0-.4,1.12,1.56,1.56,0,0,0,.21.79,1.76,1.76,0,0,0,.67.63,4,4,0,0,0,1.19.41,10.76,10.76,0,0,0,3.65,0,4.47,4.47,0,0,0,1.29-.45,2,2,0,0,0,.74-.69A1.68,1.68,0,0,0,148.83,93.25Zm-4.36-9.12a3.61,3.61,0,0,0,1.25-.2,2.44,2.44,0,0,0,.88-.54,2.22,2.22,0,0,0,.53-.83,3,3,0,0,0,.18-1.06,2.51,2.51,0,0,0-.71-1.88,3.61,3.61,0,0,0-4.26,0,2.51,2.51,0,0,0-.71,1.88,3,3,0,0,0,.18,1,2.29,2.29,0,0,0,.53.84,2.38,2.38,0,0,0,.89.55A3.63,3.63,0,0,0,144.47,84.13Z"/><path class="cls-2" d="M161.56,78.48a10.41,10.41,0,0,1,1-.9,6.49,6.49,0,0,1,1.14-.7,6.29,6.29,0,0,1,2.79-.62,5.75,5.75,0,0,1,2.33.44A4.6,4.6,0,0,1,170.53,78a5.49,5.49,0,0,1,1,1.92,8.16,8.16,0,0,1,.35,2.46v10.2h-3.86V82.33a3.45,3.45,0,0,0-.67-2.27,2.51,2.51,0,0,0-2-.8,4,4,0,0,0-1.87.45,6.71,6.71,0,0,0-1.65,1.23V92.53h-3.86v-16h2.36a1,1,0,0,1,1,.7Z"/></svg>