<svg id="Layer_1" data-name="Layer 1" xmlns="http://www.w3.org/2000/svg" viewBox="0 0 131.43 87.63"><defs><style>.cls-1,.cls-17{fill:#515151;}.cls-1,.cls-10,.cls-11,.cls-12,.cls-13,.cls-14,.cls-15,.cls-16,.cls-18,.cls-2,.cls-3,.cls-4,.cls-5,.cls-6,.cls-7,.cls-8,.cls-9{stroke:#000;stroke-miterlimit:10;}.cls-1,.cls-10,.cls-11,.cls-12,.cls-13,.cls-14,.cls-15,.cls-16,.cls-2,.cls-3,.cls-4,.cls-5,.cls-6,.cls-7,.cls-8,.cls-9{stroke-width:0.25px;}.cls-2{fill:#bbda00;}.cls-3{fill:#00a88e;}.cls-4{fill:#64ff7f;}.cls-5{fill:#321900;}.cls-6{fill:#6b64ff;}.cls-7{fill:#004d1e;}.cls-8{fill:#e80019;}.cls-9{fill:#a38d00;}.cls-10{fill:#0001a8;}.cls-11{fill:#ba2400;}.cls-12{fill:#ff56c7;}.cls-13{fill:#ffdd09;}.cls-14{fill:#be7fff;}.cls-15{fill:#9cff32;}.cls-16{fill:#cbff9f;}.cls-18{fill:#fff;stroke-width:0.5px;}</style></defs><title>design_logo2</title><rect class="cls-1" x="52.78" y="62.2" width="7.75" height="7.46" transform="translate(-9.28 122.58) rotate(-90)"/><rect class="cls-1" x="61.48" y="62.2" width="7.75" height="7.46" transform="translate(-0.58 131.29) rotate(-90)"/><rect class="cls-1" x="44.08" y="62.2" width="7.75" height="7.46" transform="translate(-17.98 113.88) rotate(-90)"/><rect class="cls-1" x="35.37" y="62.2" width="7.75" height="7.46" transform="translate(-26.69 105.18) rotate(-90)"/><rect class="cls-1" x="52.78" y="71.05" width="7.75" height="7.46" transform="translate(-18.13 131.43) rotate(-90)"/><rect class="cls-1" x="44.08" y="71.05" width="7.75" height="7.46" transform="translate(-26.83 122.73) rotate(-90)"/><rect class="cls-1" x="52.78" y="79.9" width="7.75" height="7.46" transform="translate(-26.98 140.28) rotate(-90)"/><rect class="cls-1" x="61.48" y="79.9" width="7.75" height="7.46" transform="translate(-18.28 148.98) rotate(-90)"/><rect class="cls-1" x="44.08" y="79.9" width="7.75" height="7.46" transform="translate(-35.68 131.58) rotate(-90)"/><rect class="cls-1" x="35.37" y="79.9" width="7.75" height="7.46" transform="translate(-44.38 122.88) rotate(-90)"/><rect class="cls-1" x="17.39" y="62.2" width="7.75" height="7.46" transform="translate(-44.67 87.19) rotate(-90)"/><rect class="cls-1" x="26.09" y="62.2" width="7.75" height="7.46" transform="translate(-35.97 95.89) rotate(-90)"/><rect class="cls-1" x="8.68" y="62.2" width="7.75" height="7.46" transform="translate(-53.38 78.49) rotate(-90)"/><rect class="cls-1" x="-0.02" y="62.2" width="7.75" height="7.46" transform="translate(-62.08 69.79) rotate(-90)"/><rect class="cls-2" x="100.52" y="71.02" width="5.98" height="5.75" transform="translate(29.62 177.41) rotate(-90)"/><rect class="cls-3" x="124.12" y="74.88" width="3.13" height="3.59" transform="translate(49.01 202.36) rotate(-90)"/><rect class="cls-4" x="86.62" y="60.4" width="5.87" height="5.65" transform="translate(26.33 152.78) rotate(-90)"/><rect class="cls-1" x="70.77" y="62.2" width="7.75" height="7.46" transform="translate(8.7 140.57) rotate(-90)"/><rect class="cls-1" x="52.78" y="0.27" width="7.75" height="7.46" transform="translate(52.65 60.65) rotate(-90)"/><rect class="cls-1" x="61.48" y="0.27" width="7.75" height="7.46" transform="translate(61.35 69.35) rotate(-90)"/><rect class="cls-1" x="44.08" y="0.27" width="7.75" height="7.46" transform="translate(43.95 51.95) rotate(-90)"/><rect class="cls-1" x="35.37" y="0.27" width="7.75" height="7.46" transform="translate(35.25 43.24) rotate(-90)"/><rect class="cls-1" x="17.39" y="0.27" width="7.75" height="7.46" transform="translate(17.26 25.26) rotate(-90)"/><rect class="cls-1" x="26.09" y="0.27" width="7.75" height="7.46" transform="translate(25.96 33.96) rotate(-90)"/><rect class="cls-1" x="8.68" y="0.27" width="7.75" height="7.46" transform="translate(8.56 16.55) rotate(-90)"/><rect class="cls-1" x="-0.02" y="0.27" width="7.75" height="7.46" transform="translate(-0.14 7.85) rotate(-90)"/><rect class="cls-1" x="88.17" y="0.27" width="7.75" height="7.46" transform="translate(88.04 96.04) rotate(-90)"/><rect class="cls-1" x="96.87" y="0.27" width="7.75" height="7.46" transform="translate(96.75 104.74) rotate(-90)"/><rect class="cls-1" x="79.47" y="0.27" width="7.75" height="7.46" transform="translate(79.34 87.34) rotate(-90)"/><rect class="cls-1" x="70.77" y="0.27" width="7.75" height="7.46" transform="translate(70.64 78.64) rotate(-90)"/><rect class="cls-1" x="-0.02" y="53.36" width="7.75" height="7.46" transform="translate(-53.23 60.94) rotate(-90)"/><rect class="cls-1" x="-0.02" y="44.51" width="7.75" height="7.46" transform="translate(-44.38 52.09) rotate(-90)"/><rect class="cls-1" x="-0.02" y="35.66" width="7.75" height="7.46" transform="translate(-35.54 43.24) rotate(-90)"/><rect class="cls-1" x="-0.02" y="26.81" width="7.75" height="7.46" transform="translate(-26.69 34.4) rotate(-90)"/><rect class="cls-1" x="-0.02" y="17.96" width="7.75" height="7.46" transform="translate(-17.84 25.55) rotate(-90)"/><rect class="cls-1" x="-0.02" y="9.12" width="7.75" height="7.46" transform="translate(-8.99 16.7) rotate(-90)"/><rect class="cls-5" x="113.2" y="58.59" width="3.73" height="3.59" transform="translate(54.68 175.45) rotate(-90)"/><rect class="cls-6" x="116.27" y="37.36" width="4.21" height="4.05" transform="translate(78.99 157.76) rotate(-90)"/><rect class="cls-7" x="102.55" y="37.39" width="5.56" height="5.36" transform="translate(65.27 145.4) rotate(-90)"/><rect class="cls-8" x="107.81" y="30.36" width="3.9" height="3.59" transform="translate(77.6 141.92) rotate(-90)"/><rect class="cls-1" x="96.87" y="17.96" width="7.75" height="7.46" transform="translate(79.05 122.44) rotate(-90)"/><rect class="cls-1" x="96.87" y="9.12" width="7.75" height="7.46" transform="translate(87.9 113.59) rotate(-90)"/><rect class="cls-9" x="116.65" y="49.84" width="5.98" height="5.65" transform="translate(66.98 172.3) rotate(-90)"/><rect class="cls-10" x="113.11" y="69.3" width="5.98" height="5.65" transform="translate(43.97 188.22) rotate(-90)"/><rect class="cls-11" x="104.26" y="48.07" width="5.98" height="5.65" transform="translate(56.36 158.14) rotate(-90)"/><rect class="cls-12" x="100.77" y="62.17" width="4.1" height="3.88" transform="translate(38.71 166.94) rotate(-90)"/><rect class="cls-13" x="97.18" y="55.15" width="4.21" height="3.88" transform="translate(42.2 156.37) rotate(-90)"/><rect class="cls-14" x="91.87" y="71.07" width="4.21" height="3.88" transform="translate(20.97 166.99) rotate(-90)"/><rect class="cls-15" x="127.27" y="67.53" width="4.21" height="3.88" transform="translate(59.9 198.84) rotate(-90)"/><rect class="cls-16" x="120.19" y="63.99" width="4.21" height="3.88" transform="translate(56.36 188.22) rotate(-90)"/><path class="cls-17" d="M22.8,28.8c-.1-.3-.21-.6-.29-.91s0-.44-.1-.64c-.12-.44-.18-.56-.3-1a1.92,1.92,0,0,0-.82,0l-.67.07A11.49,11.49,0,0,1,19.53,29L19,28.71c.36-.91.73-1.84,1.05-2.76.22-.64.35-1.32.62-1.94L21,23.2l.34-.78.25-.47c.2.4.38.91.55,1.33s.32,1,.47,1.52a25.83,25.83,0,0,1,.94,3.78Zm-.89-4.09c0-.16,0-.34,0-.51a1.48,1.48,0,0,0-.7-.17A6.82,6.82,0,0,0,21,25.49l.32.16.62-.11.06-.31S21.91,24.73,21.91,24.71Z"/><path class="cls-17" d="M30.46,28.87l-.85,0,0-.53-.19,0A3.11,3.11,0,0,1,27.8,29c-.81,0-1.59,0-1.68-1.23a3.47,3.47,0,0,1,.57-2.19,1.78,1.78,0,0,1,1.55-.83,3.27,3.27,0,0,1,1.59.7l.12-.75h.49l.05,1.91Zm-1.32-2.12,0-1-.45-.45s-1.06-.21-1.51.45a1.75,1.75,0,0,0-.45,1.3c.06,1.21.57,1.42,1.15,1.42a5,5,0,0,0,1.3-.59Z"/><path class="cls-17" d="M36.21,25.42c-.38,0-.55-.14-.87,0a1.14,1.14,0,0,0-.83.81l0,2.75a2.13,2.13,0,0,1-.81-.14s-.08-1.45-.08-1.47,0-.83,0-1.36V24.45l.44-.14.11,1a1.88,1.88,0,0,1,2.23-.61Z"/><path class="cls-17" d="M41.36,28.92a2.42,2.42,0,0,1-2.27-2.41c.06-1.21,1.07-2.4,2.2-2.15s2.18.77,2.16,2.28A2.13,2.13,0,0,1,41.36,28.92ZM41,25.21a1.26,1.26,0,0,0-1.22,1.26,1.34,1.34,0,0,0,1.51,1.42c.8-.07,1.47-.49,1.48-1.28S41.85,25.26,41,25.21Z"/><path class="cls-17" d="M49.6,28.81l-.15-2.26a1.26,1.26,0,0,0-1.24-1,1.29,1.29,0,0,0-1.22.8,3.86,3.86,0,0,0-.24,1.23c0,.4,0,.82-.05,1.19l-.48,0V27.34l0-1.4.05-1.2.33-.08.05.75a1.74,1.74,0,0,1,1.54-.62,1.77,1.77,0,0,1,1.46.74A2.57,2.57,0,0,1,50.13,27l.07,1.7Z"/><path class="cls-17" d="M61.44,26.43c-.24,1.24-2.09,2.43-3.3,2.43-.2,0-.44,0-.66-.06-.14-1.51-.13-3-.13-4.56,0-.59,0-1.2.06-1.81l.5-.1a2.75,2.75,0,0,1,.49-.05,4.23,4.23,0,0,1,2.23.48,4.38,4.38,0,0,1,.87,2.11c0,.22.07.46.06.73A5.84,5.84,0,0,1,61.44,26.43Zm-2-3.31a3.37,3.37,0,0,0-1.08.12,25.09,25.09,0,0,0-.15,2.68v1.23c0,.34.05.72.08,1.06a3.61,3.61,0,0,0,2.59-3.32A2.66,2.66,0,0,0,59.47,23.12Z"/><path class="cls-17" d="M67.23,25.61a9.25,9.25,0,0,1,0,1.54,1.81,1.81,0,0,1-.63,1.44,1.32,1.32,0,0,1-1.31.2,1.19,1.19,0,0,1-.74-.31.67.67,0,0,1-.11-.23c0-.1,0-.19-.07-.3a2.76,2.76,0,0,1-.13-.83c0-.27,0-.55,0-1V24.86H65c0,.82-.14,1.6-.1,2.51a.9.9,0,0,0,.57.92.88.88,0,0,0,1-.65,3.14,3.14,0,0,0,.15-1c0-.15,0-.3,0-.44a1.88,1.88,0,0,1,0-.36l.19-1,1,.1,0,.55Z"/><path class="cls-17" d="M72.64,25.82l-.73.57.67.64.92,1.08-.45.35-1.69-1.66-.06,2.07-.83.06,0-1.75v-5l.54-.22.19,2.13.15,1.16.14.69.89-.76.75-.67.42.58Z"/><path class="cls-17" d="M78.77,26H76.84c0,.66-.19,1.07.17,1.61a1.59,1.59,0,0,0,1.3.79,1.62,1.62,0,0,0,1.61-.79l.56.08c-.3.31-.39.55-.75.78a2,2,0,0,1-1.26.35A2.19,2.19,0,0,1,77,28.37a2.35,2.35,0,0,1,.89-4.07,3.64,3.64,0,0,1,1.81,0,1.41,1.41,0,0,1,1.23,1.51Zm-.21-1.26a1.54,1.54,0,0,0-1.41.86l1.25,0,1.42-.07A1.52,1.52,0,0,0,78.55,24.71Z"/><path class="cls-18" d="M35.29,37.24h3.33a4.78,4.78,0,1,1,0,9.56H35.29Zm3.28,7.42a2.65,2.65,0,0,0,0-5.3h-.94v5.3Z"/><path class="cls-18" d="M46.66,37.24H53v2.07H49V41h3.68v2H49V44.8h4.16v2h-6.5Z"/><path class="cls-18" d="M58,44a1,1,0,0,0,1,1,.84.84,0,0,0,1-.83c0-.72-.94-.92-1.72-1.19-1.61-.57-2.5-1.32-2.5-3a3.18,3.18,0,0,1,3.25-3.09A3,3,0,0,1,62.19,40H60A1,1,0,0,0,58,40c0,.72.88.84,1.69,1.08,1.7.51,2.5,1.47,2.5,3A3.17,3.17,0,0,1,59,47.12,3,3,0,0,1,55.69,44Z"/><path class="cls-18" d="M65.22,37.24h2.34V46.8H65.22Z"/><path class="cls-18" d="M75.67,36.93a5.29,5.29,0,0,1,4,1.67L78,40.1a3.52,3.52,0,0,0-2.37-1,2.88,2.88,0,0,0,0,5.77c1.67,0,2.48-.92,2.55-1.85H75.54V41H80.8v.91c0,2.82-1.66,5.18-5.13,5.18a5.1,5.1,0,1,1,0-10.2Z"/><path class="cls-18" d="M83.77,37.24h2.47L90,42.92V37.24h2.33V46.8H89.84l-3.73-5.69V46.8H83.77Z"/></svg>