<svg id="Layer_1" data-name="Layer 1" xmlns="http://www.w3.org/2000/svg" viewBox="0 0 259.19 171.34"><defs><style>.cls-1{fill:#fff;}.cls-2{isolation:isolate;}.cls-3{fill:#5e6d00;}.cls-4{fill:#afcc00;}.cls-5{fill:#5e6e00;}.cls-6{fill:#006253;}.cls-7{fill:#008772;}.cls-8{fill:#00836e;}.cls-9{fill:#4abd5e;}.cls-10{fill:#4cc261;}.cls-11{fill:#45b058;}.cls-12{fill:#1a0d00;}.cls-13{fill:#231200;}.cls-14{fill:#2c1600;}.cls-15{fill:#383486;}.cls-16{fill:#524dc4;}.cls-17{fill:#5953d3;}.cls-18{fill:#00270f;}.cls-19{fill:#002d11;}.cls-20{fill:#004c1d;}.cls-21{fill:#77000d;}.cls-22{fill:#a40012;}.cls-23{fill:#cb0016;}.cls-24{fill:#534800;}.cls-25{fill:#736400;}.cls-26{fill:#8e7b00;}.cls-27{fill:#480982;}.cls-28{fill:#640db4;}.cls-29{fill:#7b10df;}.cls-30{fill:#5d1200;}.cls-31{fill:#5f1200;}.cls-32{fill:#b32300;}.cls-33{fill:#bf4095;}.cls-34{fill:#822c66;}.cls-35{fill:#e24cb0;}.cls-36{fill:#827105;}.cls-37{fill:#b49c06;}.cls-38{fill:#dfc108;}.cls-39{fill:#7850a2;}.cls-40{fill:#604081;}.cls-41{fill:#bb7dfb;}.cls-42{fill:#73bd25;}.cls-43{fill:#77c226;}.cls-44{fill:#6cb023;}.cls-45{fill:#688251;}.cls-46{fill:#8fb470;}.cls-47{fill:#b1df8b;}</style></defs><title>design_logo3</title><rect class="cls-1" x="103.25" y="121.73" width="15.19" height="14.63" transform="translate(-18.2 239.89) rotate(-90)"/><rect class="cls-1" x="120.31" y="121.73" width="15.19" height="14.63" transform="translate(-1.14 256.95) rotate(-90)"/><rect class="cls-1" x="86.18" y="121.73" width="15.19" height="14.63" transform="translate(-35.27 222.82) rotate(-90)"/><rect class="cls-1" x="69.12" y="121.73" width="15.19" height="14.63" transform="translate(-52.33 205.76) rotate(-90)"/><rect class="cls-1" x="103.25" y="139.08" width="15.19" height="14.63" transform="translate(-35.55 257.24) rotate(-90)"/><rect class="cls-1" x="86.18" y="139.08" width="15.19" height="14.63" transform="translate(-52.62 240.17) rotate(-90)"/><rect class="cls-1" x="103.25" y="156.43" width="15.19" height="14.63" transform="translate(-52.9 274.59) rotate(-90)"/><rect class="cls-1" x="120.31" y="156.43" width="15.19" height="14.63" transform="translate(-35.84 291.65) rotate(-90)"/><rect class="cls-1" x="86.18" y="156.43" width="15.19" height="14.63" transform="translate(-69.97 257.52) rotate(-90)"/><rect class="cls-1" x="69.12" y="156.43" width="15.19" height="14.63" transform="translate(-87.03 240.46) rotate(-90)"/><rect class="cls-1" x="33.85" y="121.73" width="15.19" height="14.63" transform="translate(-87.6 170.49) rotate(-90)"/><rect class="cls-1" x="50.91" y="121.73" width="15.19" height="14.63" transform="translate(-70.54 187.55) rotate(-90)"/><rect class="cls-1" x="16.78" y="121.73" width="15.19" height="14.63" transform="translate(-104.67 153.42) rotate(-90)"/><rect class="cls-1" x="-0.28" y="121.73" width="15.19" height="14.63" transform="translate(-121.73 136.36) rotate(-90)"/><g class="cls-2"><polygon class="cls-3" points="204.66 151.58 195.33 149.77 198.97 149.26 208.3 151.07 204.66 151.58"/><polygon class="cls-4" points="208.3 151.07 198.97 149.26 200.81 137.74 210.14 139.55 208.3 151.07"/><polygon class="cls-5" points="197.17 138.25 200.81 137.74 198.97 149.26 195.33 149.77 197.17 138.25"/></g><g class="cls-2"><polygon class="cls-6" points="247.56 149.84 251.81 153.77 246.43 156.22 242.18 152.29 247.56 149.84"/><polygon class="cls-7" points="246 144.01 250.25 147.94 251.81 153.77 247.56 149.84 246 144.01"/><polygon class="cls-8" points="247.56 149.84 242.18 152.29 240.62 146.46 246 144.01 247.56 149.84"/></g><g class="cls-2"><polygon class="cls-9" points="167.7 121.73 169.77 116.97 180.78 116.03 178.71 120.79 167.7 121.73"/><polygon class="cls-10" points="178.71 120.79 180.78 116.03 183.02 125.73 180.95 130.49 178.71 120.79"/><polygon class="cls-11" points="180.95 130.49 169.94 131.43 167.7 121.73 178.71 120.79 180.95 130.49"/></g><rect class="cls-1" x="138.52" y="121.73" width="15.19" height="14.63" transform="translate(17.07 275.16) rotate(-90)"/><rect class="cls-1" x="103.25" y="0.28" width="15.19" height="14.63" transform="translate(103.25 118.44) rotate(-90)"/><rect class="cls-1" x="120.31" y="0.28" width="15.19" height="14.63" transform="translate(120.31 135.5) rotate(-90)"/><rect class="cls-1" x="86.18" y="0.28" width="15.19" height="14.63" transform="translate(86.18 101.37) rotate(-90)"/><rect class="cls-1" x="69.12" y="0.28" width="15.19" height="14.63" transform="translate(69.12 84.31) rotate(-90)"/><rect class="cls-1" x="33.85" y="0.28" width="15.19" height="14.63" transform="translate(33.85 49.04) rotate(-90)"/><rect class="cls-1" x="50.91" y="0.28" width="15.19" height="14.63" transform="translate(50.91 66.1) rotate(-90)"/><rect class="cls-1" x="16.78" y="0.28" width="15.19" height="14.63" transform="translate(16.78 31.97) rotate(-90)"/><rect class="cls-1" x="-0.28" y="0.28" width="15.19" height="14.63" transform="translate(-0.28 14.91) rotate(-90)"/><rect class="cls-1" x="172.65" y="0.28" width="15.19" height="14.63" transform="translate(172.65 187.84) rotate(-90)"/><rect class="cls-1" x="189.71" y="0.28" width="15.19" height="14.63" transform="translate(189.71 204.9) rotate(-90)"/><rect class="cls-1" x="155.59" y="0.28" width="15.19" height="14.63" transform="translate(155.59 170.77) rotate(-90)"/><rect class="cls-1" x="138.52" y="0.28" width="15.19" height="14.63" transform="translate(138.52 153.71) rotate(-90)"/><rect class="cls-1" x="-0.28" y="104.38" width="15.19" height="14.63" transform="translate(-104.38 119.01) rotate(-90)"/><rect class="cls-1" x="-0.28" y="87.03" width="15.19" height="14.63" transform="translate(-87.03 101.66) rotate(-90)"/><rect class="cls-1" x="-0.28" y="69.68" width="15.19" height="14.63" transform="translate(-69.68 84.31) rotate(-90)"/><rect class="cls-1" x="-0.28" y="52.33" width="15.19" height="14.63" transform="translate(-52.33 66.96) rotate(-90)"/><rect class="cls-1" x="-0.28" y="34.98" width="15.19" height="14.63" transform="translate(-34.98 49.61) rotate(-90)"/><rect class="cls-1" x="-0.28" y="17.63" width="15.19" height="14.63" transform="translate(-17.63 32.26) rotate(-90)"/><g class="cls-2"><polygon class="cls-12" points="224.54 123.35 219.98 120.87 219.99 113.86 224.55 116.34 224.54 123.35"/><polygon class="cls-13" points="224.55 116.34 219.99 113.86 226.25 112.98 230.81 115.46 224.55 116.34"/><polygon class="cls-14" points="230.81 115.46 230.79 122.47 224.54 123.35 224.55 116.34 230.81 115.46"/></g><g class="cls-2"><polygon class="cls-15" points="229.1 82.12 225.4 78.48 227.59 70.87 231.29 74.51 229.1 82.12"/><polygon class="cls-16" points="231.29 74.51 227.59 70.87 234.67 71.87 238.37 75.51 231.29 74.51"/><polygon class="cls-17" points="238.37 75.51 236.17 83.12 229.1 82.12 231.29 74.51 238.37 75.51"/></g><g class="cls-2"><polygon class="cls-18" points="198.26 77.34 201.26 71.71 205 80.63 202 86.25 198.26 77.34"/><polygon class="cls-19" points="202 86.25 205 80.63 214.36 79.32 211.35 84.94 202 86.25"/><polygon class="cls-20" points="214.36 79.32 205 80.63 201.26 71.71 210.62 70.4 214.36 79.32"/></g><g class="cls-2"><polygon class="cls-21" points="214.13 68.17 209.57 65.69 209.58 58.34 214.14 60.83 214.13 68.17"/><polygon class="cls-22" points="214.14 60.83 209.58 58.34 215.84 57.47 220.4 59.95 214.14 60.83"/><polygon class="cls-23" points="220.4 59.95 220.39 67.28 214.13 68.17 214.14 60.83 220.4 59.95"/></g><rect class="cls-1" x="189.71" y="34.98" width="15.19" height="14.63" transform="translate(155.01 239.6) rotate(-90)"/><rect class="cls-1" x="189.71" y="17.63" width="15.19" height="14.63" transform="translate(172.36 222.25) rotate(-90)"/><g class="cls-2"><polygon class="cls-24" points="231.7 110.58 227.14 108.1 227.16 96.85 231.72 99.33 231.7 110.58"/><polygon class="cls-25" points="231.72 99.33 227.16 96.85 237.02 95.46 241.58 97.94 231.72 99.33"/><polygon class="cls-26" points="241.58 97.94 241.56 109.2 231.7 110.58 231.72 99.33 241.58 97.94"/></g><g class="cls-2"><polygon class="cls-27" points="224.76 148.75 220.2 146.27 220.22 135.01 224.78 137.5 224.76 148.75"/><polygon class="cls-28" points="224.78 137.5 220.22 135.01 230.07 133.63 234.63 136.11 224.78 137.5"/><polygon class="cls-29" points="234.63 136.11 234.61 147.37 224.76 148.75 224.78 137.5 234.63 136.11"/></g><g class="cls-2"><polygon class="cls-30" points="202.44 96.55 204.61 93.13 207.15 104.03 204.98 107.45 202.44 96.55"/><polygon class="cls-31" points="204.98 107.45 207.15 104.03 217.69 102.54 215.53 105.97 204.98 107.45"/><polygon class="cls-32" points="204.61 93.13 215.15 91.65 217.69 102.54 207.15 104.03 204.61 93.13"/></g><g class="cls-2"><polygon class="cls-33" points="207.26 123.06 205.76 131.34 198.99 132.29 200.49 124.02 207.26 123.06"/><polygon class="cls-34" points="200.49 124.02 198.99 132.29 195.52 127.89 197.03 119.61 200.49 124.02"/><polygon class="cls-35" points="203.79 118.66 207.26 123.06 200.49 124.02 197.03 119.61 203.79 118.66"/></g><g class="cls-2"><polygon class="cls-36" points="193.34 117.37 188.78 114.89 188.79 106.97 193.35 109.44 193.34 117.37"/><polygon class="cls-37" points="193.35 109.44 188.79 106.97 195.56 106.01 200.12 108.49 193.35 109.44"/><polygon class="cls-38" points="200.12 108.49 200.11 116.42 193.34 117.37 193.35 109.44 200.12 108.49"/></g><g class="cls-2"><polygon class="cls-39" points="176.73 141.55 183.41 137.49 186.41 144.99 179.73 149.05 176.73 141.55"/><polygon class="cls-40" points="179.73 149.05 186.41 144.99 191.35 144.3 184.67 148.36 179.73 149.05"/><polygon class="cls-41" points="183.41 137.49 188.35 136.79 191.35 144.3 186.41 144.99 183.41 137.49"/></g><g class="cls-2"><polygon class="cls-42" points="247.68 135.37 249.76 130.61 257.65 129.94 255.58 134.69 247.68 135.37"/><polygon class="cls-43" points="255.58 134.69 257.65 129.94 259.19 136.6 257.12 141.36 255.58 134.69"/><polygon class="cls-44" points="257.12 141.36 249.22 142.03 247.68 135.37 255.58 134.69 257.12 141.36"/></g><g class="cls-2"><polygon class="cls-45" points="238.45 134.73 233.89 132.25 233.9 124.32 238.46 126.8 238.45 134.73"/><polygon class="cls-46" points="238.46 126.8 233.9 124.32 240.67 123.37 245.23 125.85 238.46 126.8"/><polygon class="cls-47" points="245.23 125.85 245.22 133.77 238.45 134.73 238.46 126.8 245.23 125.85"/></g><path class="cls-1" d="M48.53,56.83H47a.67.67,0,0,1-.44-.14.83.83,0,0,1-.25-.34l-1.4-3.6H38.19l-1.4,3.6a.73.73,0,0,1-.24.33.66.66,0,0,1-.44.15H34.56l6-14.92h2Zm-4.21-5.54L42,45.22q-.1-.27-.22-.63t-.22-.77a11.44,11.44,0,0,1-.45,1.41l-2.34,6.06Z"/><path class="cls-1" d="M51.68,47.77a6,6,0,0,1,1.88-1.26,5.82,5.82,0,0,1,2.24-.42,4,4,0,0,1,1.57.29,3.22,3.22,0,0,1,1.16.81,3.44,3.44,0,0,1,.71,1.26,5.25,5.25,0,0,1,.24,1.62v6.75h-.82a.81.81,0,0,1-.42-.09.6.6,0,0,1-.23-.35l-.21-1a10.36,10.36,0,0,1-.81.68,4.65,4.65,0,0,1-.83.5,4.52,4.52,0,0,1-.93.31,5.1,5.1,0,0,1-1.1.11A3.79,3.79,0,0,1,53,56.82a2.66,2.66,0,0,1-.94-.52,2.43,2.43,0,0,1-.64-.87,3,3,0,0,1-.23-1.24A2.32,2.32,0,0,1,51.5,53a3,3,0,0,1,1.11-1,7.31,7.31,0,0,1,2-.73,15.32,15.32,0,0,1,3-.33v-.82a2.82,2.82,0,0,0-.53-1.86,1.91,1.91,0,0,0-1.55-.63,3.33,3.33,0,0,0-1.15.17,4.34,4.34,0,0,0-.8.39l-.58.39a.84.84,0,0,1-.48.17.53.53,0,0,1-.32-.1.91.91,0,0,1-.23-.24Zm6,4.31a15.48,15.48,0,0,0-2.18.2,6.21,6.21,0,0,0-1.47.42,2,2,0,0,0-.82.61,1.32,1.32,0,0,0-.25.79,1.75,1.75,0,0,0,.14.72,1.33,1.33,0,0,0,.37.49,1.48,1.48,0,0,0,.55.28,2.53,2.53,0,0,0,.68.09,3.78,3.78,0,0,0,.9-.1,3.36,3.36,0,0,0,.77-.29,4.32,4.32,0,0,0,.69-.45,6,6,0,0,0,.64-.59Z"/><path class="cls-1" d="M66,48.4a4.76,4.76,0,0,1,1.23-1.69A2.68,2.68,0,0,1,69,46.1a2.78,2.78,0,0,1,.64.07,1.73,1.73,0,0,1,.55.23L70,47.78a.3.3,0,0,1-.31.26,2.16,2.16,0,0,1-.43-.06,3,3,0,0,0-.63-.06,2.53,2.53,0,0,0-.89.15,2.09,2.09,0,0,0-.7.43,3.07,3.07,0,0,0-.55.71,6.07,6.07,0,0,0-.44,1v6.66H64.19V46.28h1.06a.59.59,0,0,1,.42.11.71.71,0,0,1,.16.4Z"/><path class="cls-1" d="M77.69,46.12a5.38,5.38,0,0,1,2.08.39,4.46,4.46,0,0,1,1.58,1.09,4.8,4.8,0,0,1,1,1.71,7.41,7.41,0,0,1,0,4.49,4.81,4.81,0,0,1-1,1.71,4.39,4.39,0,0,1-1.58,1.09,5.44,5.44,0,0,1-2.08.38,5.51,5.51,0,0,1-2.1-.38A4.39,4.39,0,0,1,74,55.51a4.81,4.81,0,0,1-1-1.71,7.41,7.41,0,0,1,0-4.49,4.8,4.8,0,0,1,1-1.71,4.46,4.46,0,0,1,1.59-1.09A5.44,5.44,0,0,1,77.69,46.12Zm0,9.41a2.71,2.71,0,0,0,2.33-1,4.84,4.84,0,0,0,.77-2.92A4.89,4.89,0,0,0,80,48.63a2.7,2.7,0,0,0-2.33-1.05,3.27,3.27,0,0,0-1.38.27,2.57,2.57,0,0,0-1,.78,3.47,3.47,0,0,0-.58,1.25,6.72,6.72,0,0,0-.19,1.68,4.82,4.82,0,0,0,.78,2.92A2.74,2.74,0,0,0,77.69,55.53Z"/><path class="cls-1" d="M88.69,47.81a6.27,6.27,0,0,1,.73-.7,4.8,4.8,0,0,1,.82-.54,4.15,4.15,0,0,1,.92-.34,4.36,4.36,0,0,1,1-.12,3.81,3.81,0,0,1,1.52.29,3,3,0,0,1,1.1.81,3.59,3.59,0,0,1,.67,1.26,5.5,5.5,0,0,1,.23,1.63v6.71H93.86V50.11a2.84,2.84,0,0,0-.55-1.86,2,2,0,0,0-1.66-.66,3.12,3.12,0,0,0-1.54.4,5.08,5.08,0,0,0-1.32,1.07v7.77H86.94V46.28h1.11a.46.46,0,0,1,.49.39Z"/><path class="cls-1" d="M121,49.38a8.41,8.41,0,0,1-.53,3.05,6.77,6.77,0,0,1-1.5,2.35,6.68,6.68,0,0,1-2.33,1.51,8.12,8.12,0,0,1-3,.54h-5.57V41.91h5.57a8.13,8.13,0,0,1,3,.54A6.65,6.65,0,0,1,119,44a6.83,6.83,0,0,1,1.5,2.36A8.41,8.41,0,0,1,121,49.38Zm-2.07,0a7.5,7.5,0,0,0-.37-2.46,5.18,5.18,0,0,0-1.06-1.83,4.53,4.53,0,0,0-1.67-1.15,5.79,5.79,0,0,0-2.19-.4h-3.55V55.19h3.55a5.79,5.79,0,0,0,2.19-.4,4.56,4.56,0,0,0,1.67-1.14,5.12,5.12,0,0,0,1.06-1.83A7.49,7.49,0,0,0,119,49.38Z"/><path class="cls-1" d="M133.91,46.28V56.83h-1.1a.47.47,0,0,1-.5-.39l-.15-1.13a5.79,5.79,0,0,1-1.54,1.22,4,4,0,0,1-2,.46,3.8,3.8,0,0,1-1.52-.29A3,3,0,0,1,126,55.9a3.43,3.43,0,0,1-.67-1.26,5.62,5.62,0,0,1-.22-1.63V46.28H127V53a2.82,2.82,0,0,0,.55,1.85,2.05,2.05,0,0,0,1.67.66,3.15,3.15,0,0,0,1.54-.39A4.89,4.89,0,0,0,132.06,54V46.28Z"/><path class="cls-1" d="M140.6,41.5v9h.48a.93.93,0,0,0,.35-.06.84.84,0,0,0,.3-.23l3.33-3.57a1.27,1.27,0,0,1,.31-.28.83.83,0,0,1,.43-.1h1.68l-3.88,4.13a2.35,2.35,0,0,1-.6.55,1.94,1.94,0,0,1,.34.29,2.75,2.75,0,0,1,.29.37l4.12,5.21h-1.66a1,1,0,0,1-.41-.08.68.68,0,0,1-.3-.29l-3.47-4.32a.82.82,0,0,0-.31-.29,1.19,1.19,0,0,0-.46-.07h-.53v5h-1.86V41.5Z"/><path class="cls-1" d="M159.18,55.35a3.53,3.53,0,0,1-.82.72,5.11,5.11,0,0,1-1,.5,6.52,6.52,0,0,1-1.13.3A6.91,6.91,0,0,1,155,57a5.37,5.37,0,0,1-2-.37,4.42,4.42,0,0,1-1.59-1.08,5,5,0,0,1-1-1.76,7.17,7.17,0,0,1-.37-2.42,6.14,6.14,0,0,1,.34-2.06,4.86,4.86,0,0,1,1-1.66,4.48,4.48,0,0,1,1.55-1.1,5.09,5.09,0,0,1,2.06-.4,4.75,4.75,0,0,1,1.75.32,4,4,0,0,1,1.4.92,4.2,4.2,0,0,1,.92,1.48,5.63,5.63,0,0,1,.33,2,1.21,1.21,0,0,1-.09.58.39.39,0,0,1-.35.15h-7a6.17,6.17,0,0,0,.28,1.74,3.49,3.49,0,0,0,.68,1.23,2.76,2.76,0,0,0,1,.74,3.58,3.58,0,0,0,1.35.24,4,4,0,0,0,1.2-.16,5.7,5.7,0,0,0,.87-.35,6.71,6.71,0,0,0,.61-.35.81.81,0,0,1,.42-.16.41.41,0,0,1,.35.18Zm-1.5-4.94a3.66,3.66,0,0,0-.18-1.18,2.66,2.66,0,0,0-.53-.93,2.37,2.37,0,0,0-.85-.6,3.21,3.21,0,0,0-3.24.56,3.63,3.63,0,0,0-1,2.15Z"/><path class="cls-1" d="M90,80.24a12.21,12.21,0,0,1-.83,4.56,10.24,10.24,0,0,1-5.93,5.9,12.72,12.72,0,0,1-4.68.83H70V69h8.6a12.62,12.62,0,0,1,4.68.84,10.57,10.57,0,0,1,3.61,2.33,10.39,10.39,0,0,1,2.33,3.57A12.21,12.21,0,0,1,90,80.24Zm-4.31,0a10.51,10.51,0,0,0-.49-3.33,6.91,6.91,0,0,0-1.42-2.5,6.21,6.21,0,0,0-2.25-1.57,7.71,7.71,0,0,0-3-.55H74.19v15.9h4.39a7.7,7.7,0,0,0,3-.55,6.2,6.2,0,0,0,2.25-1.57,6.91,6.91,0,0,0,1.42-2.5A10.51,10.51,0,0,0,85.72,80.24Z"/><path class="cls-1" d="M98.72,84a7.59,7.59,0,0,0,.44,2.13,4.35,4.35,0,0,0,.91,1.48,3.54,3.54,0,0,0,1.33.87,4.85,4.85,0,0,0,1.71.29,5.29,5.29,0,0,0,1.62-.22,7.54,7.54,0,0,0,1.19-.48l.89-.48a1.5,1.5,0,0,1,.74-.22.8.8,0,0,1,.72.36l1.11,1.41a6.42,6.42,0,0,1-1.44,1.26,8,8,0,0,1-1.66.81,9.09,9.09,0,0,1-1.76.43,12.67,12.67,0,0,1-1.74.13,8.55,8.55,0,0,1-3.11-.55,6.94,6.94,0,0,1-2.5-1.64,7.69,7.69,0,0,1-1.67-2.69,10.39,10.39,0,0,1-.61-3.71,8.87,8.87,0,0,1,.53-3.08,7.42,7.42,0,0,1,1.52-2.51,7.17,7.17,0,0,1,2.42-1.69,8,8,0,0,1,3.22-.62,7.85,7.85,0,0,1,2.79.48,6.09,6.09,0,0,1,2.2,1.41A6.56,6.56,0,0,1,109,79.44a8.49,8.49,0,0,1,.52,3.08,2.5,2.5,0,0,1-.19,1.18.78.78,0,0,1-.72.3Zm7.35-2.33a4.66,4.66,0,0,0-.21-1.41,3.37,3.37,0,0,0-.63-1.16,2.94,2.94,0,0,0-1.07-.79,3.68,3.68,0,0,0-1.51-.29A3.57,3.57,0,0,0,100,79a4.67,4.67,0,0,0-1.23,2.7Z"/><path class="cls-1" d="M125.05,78.63a1,1,0,0,1-.33.35.85.85,0,0,1-.44.1,1.37,1.37,0,0,1-.6-.16l-.74-.35a6.77,6.77,0,0,0-1-.35,4.61,4.61,0,0,0-1.27-.16,2.93,2.93,0,0,0-1.79.48,1.51,1.51,0,0,0-.65,1.26,1.21,1.21,0,0,0,.34.87,3,3,0,0,0,.89.62,8.68,8.68,0,0,0,1.26.48q.7.21,1.43.46t1.43.57a5,5,0,0,1,1.26.81,3.58,3.58,0,0,1,1.23,2.83,5.4,5.4,0,0,1-.41,2.13,4.61,4.61,0,0,1-1.23,1.69,5.78,5.78,0,0,1-2,1.11,9.4,9.4,0,0,1-4.37.25,9.52,9.52,0,0,1-1.51-.41,8.34,8.34,0,0,1-1.34-.62,6.49,6.49,0,0,1-1.09-.78l.89-1.47a1.26,1.26,0,0,1,.41-.41,1.14,1.14,0,0,1,.59-.14,1.25,1.25,0,0,1,.68.2l.74.44a6.55,6.55,0,0,0,1,.44,4.35,4.35,0,0,0,1.44.2,3.74,3.74,0,0,0,1.18-.16,2.48,2.48,0,0,0,.81-.43,1.61,1.61,0,0,0,.47-.62,1.85,1.85,0,0,0,.15-.73,1.3,1.3,0,0,0-.34-.92,3,3,0,0,0-.89-.62,8.58,8.58,0,0,0-1.27-.48l-1.45-.46a13.44,13.44,0,0,1-1.45-.59,5,5,0,0,1-1.26-.85,3.85,3.85,0,0,1-.89-1.27,4.41,4.41,0,0,1-.34-1.81,4.61,4.61,0,0,1,.39-1.87,4.4,4.4,0,0,1,1.15-1.55A5.7,5.7,0,0,1,118,75.66a7.88,7.88,0,0,1,2.62-.4,8,8,0,0,1,3,.55,6.82,6.82,0,0,1,2.26,1.44Z"/><path class="cls-1" d="M136.37,70.84a2.2,2.2,0,0,1-.2.94,2.55,2.55,0,0,1-1.33,1.29,2.42,2.42,0,0,1-1,.19,2.32,2.32,0,0,1-.94-.19,2.49,2.49,0,0,1-1.3-1.29,2.27,2.27,0,0,1-.2-.94,2.41,2.41,0,0,1,.2-1,2.47,2.47,0,0,1,.52-.78,2.5,2.5,0,0,1,.77-.52,2.32,2.32,0,0,1,.94-.2,2.42,2.42,0,0,1,1,.2,2.57,2.57,0,0,1,.79.52,2.52,2.52,0,0,1,.54.78A2.34,2.34,0,0,1,136.37,70.84Zm-.53,4.67v16H132v-16Z"/><path class="cls-1" d="M156.67,76.06v1.44q0,.69-.83.84l-1.44.27a4.87,4.87,0,0,1,.33,1.81,4.69,4.69,0,0,1-1.8,3.78,6.18,6.18,0,0,1-2,1,8.09,8.09,0,0,1-2.48.37,8.49,8.49,0,0,1-.91,0q-.44,0-.86-.12-.75.45-.75,1a.75.75,0,0,0,.45.71,3.65,3.65,0,0,0,1.18.32,16.59,16.59,0,0,0,1.67.12q.94,0,1.92.1a15.36,15.36,0,0,1,1.92.27,5.63,5.63,0,0,1,1.67.62,3.27,3.27,0,0,1,1.18,1.15,3.52,3.52,0,0,1,.45,1.87,4.39,4.39,0,0,1-.52,2.06,5.55,5.55,0,0,1-1.52,1.78,7.9,7.9,0,0,1-2.44,1.26,10.49,10.49,0,0,1-3.29.48,12.54,12.54,0,0,1-3.15-.35,7.49,7.49,0,0,1-2.23-.94,4,4,0,0,1-1.33-1.35,3.17,3.17,0,0,1-.44-1.59,2.71,2.71,0,0,1,.68-1.88A4.71,4.71,0,0,1,144,89.84a2.69,2.69,0,0,1-1-.87,2.49,2.49,0,0,1-.37-1.44,2.26,2.26,0,0,1,.13-.74,3.18,3.18,0,0,1,.39-.76,3.74,3.74,0,0,1,.65-.71,4.49,4.49,0,0,1,.92-.6A5.06,5.06,0,0,1,142.81,83a4.67,4.67,0,0,1-.69-2.56,4.76,4.76,0,0,1,.48-2.15,4.81,4.81,0,0,1,1.33-1.64,6.06,6.06,0,0,1,2-1,9.08,9.08,0,0,1,4.47-.15,6.6,6.6,0,0,1,1.65.62Zm-3.84,16.19a1.07,1.07,0,0,0-.28-.77,1.85,1.85,0,0,0-.77-.46,5.67,5.67,0,0,0-1.13-.24q-.65-.08-1.37-.12l-1.5-.07q-.77,0-1.51-.12a3.62,3.62,0,0,0-1,.84,1.72,1.72,0,0,0-.4,1.12,1.56,1.56,0,0,0,.21.79,1.76,1.76,0,0,0,.67.63,4,4,0,0,0,1.19.41,10.76,10.76,0,0,0,3.65,0,4.47,4.47,0,0,0,1.29-.45,2,2,0,0,0,.74-.69A1.68,1.68,0,0,0,152.83,92.25Zm-4.36-9.12a3.61,3.61,0,0,0,1.25-.2,2.44,2.44,0,0,0,.88-.54,2.22,2.22,0,0,0,.53-.83,3,3,0,0,0,.18-1.06,2.51,2.51,0,0,0-.71-1.88,3.61,3.61,0,0,0-4.26,0,2.51,2.51,0,0,0-.71,1.88,3,3,0,0,0,.18,1,2.29,2.29,0,0,0,.53.84,2.38,2.38,0,0,0,.89.55A3.63,3.63,0,0,0,148.47,83.13Z"/><path class="cls-1" d="M165.56,77.48a10.41,10.41,0,0,1,1-.9,6.49,6.49,0,0,1,1.14-.7,6.29,6.29,0,0,1,2.79-.62,5.75,5.75,0,0,1,2.33.44A4.6,4.6,0,0,1,174.53,77a5.49,5.49,0,0,1,1,1.92,8.16,8.16,0,0,1,.35,2.46v10.2h-3.86V81.33a3.45,3.45,0,0,0-.67-2.27,2.51,2.51,0,0,0-2-.8,4,4,0,0,0-1.87.45,6.71,6.71,0,0,0-1.65,1.23V91.53h-3.86v-16h2.36a1,1,0,0,1,1,.7Z"/></svg>