<svg id="Layer_1" data-name="Layer 1" xmlns="http://www.w3.org/2000/svg" viewBox="0 0 151 67.45"><defs><style>.cls-1{fill:none;stroke:#fff;stroke-miterlimit:10;stroke-width:4px;}.cls-2{fill:#fff;}</style></defs><title>grid_logo</title><polyline class="cls-1" points="2 65 2 2 149 2 149 65"/><line class="cls-1" y1="65" x2="33" y2="65"/><line class="cls-1" x1="151" y1="65" x2="118" y2="65"/><path class="cls-2" d="M38.72,31.6a14,14,0,0,1-1,5.26A12,12,0,0,1,35,41a12.43,12.43,0,0,1-4.22,2.7,14.8,14.8,0,0,1-5.47,1h-10V18.55h10a14.8,14.8,0,0,1,5.47,1A12.36,12.36,0,0,1,35,22.23a12.09,12.09,0,0,1,2.72,4.13A13.92,13.92,0,0,1,38.72,31.6Zm-5.54,0a11.74,11.74,0,0,0-.54-3.69,7.78,7.78,0,0,0-1.55-2.77,6.76,6.76,0,0,0-2.46-1.75,8.38,8.38,0,0,0-3.29-.61H20.74V40.44h4.61a8.48,8.48,0,0,0,3.29-.6,6.62,6.62,0,0,0,2.46-1.75,7.88,7.88,0,0,0,1.55-2.78A11.81,11.81,0,0,0,33.18,31.6Z"/><path class="cls-2" d="M60.88,40.35a6,6,0,0,0,2.36-.44A4.84,4.84,0,0,0,65,38.65a5.47,5.47,0,0,0,1.1-2,8.29,8.29,0,0,0,.38-2.59V18.55h5.4V34.1a12.07,12.07,0,0,1-.76,4.36,9.85,9.85,0,0,1-2.19,3.43,10,10,0,0,1-3.46,2.25,13.43,13.43,0,0,1-9.19,0,9.94,9.94,0,0,1-3.46-2.25,9.84,9.84,0,0,1-2.19-3.43,12.07,12.07,0,0,1-.76-4.36V18.55h5.4V34.1a8.29,8.29,0,0,0,.38,2.59,5.47,5.47,0,0,0,1.1,2,4.83,4.83,0,0,0,1.76,1.25A6.05,6.05,0,0,0,60.88,40.35Z"/><path class="cls-2" d="M89.91,29.33H91a2.21,2.21,0,0,0,1.93-.83l6.61-8.84a2.6,2.6,0,0,1,1-.87,3.42,3.42,0,0,1,1.37-.24h4.68L98.26,29.26a5.28,5.28,0,0,1-1.67,1.49,4.43,4.43,0,0,1,1.13.66,5.2,5.2,0,0,1,1,1.07l8.53,12.19h-4.81a3.87,3.87,0,0,1-.8-.07,2.48,2.48,0,0,1-.58-.2,1.54,1.54,0,0,1-.43-.31,2.9,2.9,0,0,1-.34-.44l-6.71-9.4a2,2,0,0,0-.81-.69,3.35,3.35,0,0,0-1.31-.21H89.91V44.67h-5.4V18.55h5.4Z"/><path class="cls-2" d="M122.46,22.78v6.71h8.71v4.09h-8.71v6.86h11.2v4.23H117V18.55h16.63v4.23Z"/><path class="cls-2" d="M53.13,62.25a5.47,5.47,0,0,1-.37,2,4.66,4.66,0,0,1-1.06,1.61A4.82,4.82,0,0,1,50.05,67a5.76,5.76,0,0,1-2.13.38H44V57.18h3.91a5.76,5.76,0,0,1,2.13.38,4.8,4.8,0,0,1,1.64,1.05,4.71,4.71,0,0,1,1.06,1.61A5.42,5.42,0,0,1,53.13,62.25Zm-2.16,0a4.58,4.58,0,0,0-.21-1.44,3,3,0,0,0-.6-1.08,2.63,2.63,0,0,0-1-.68,3.26,3.26,0,0,0-1.28-.24H46.13v6.87h1.79a3.3,3.3,0,0,0,1.28-.23,2.58,2.58,0,0,0,1-.68,3.06,3.06,0,0,0,.6-1.08A4.6,4.6,0,0,0,51,62.25Z"/><path class="cls-2" d="M59.7,58.82v2.61h3.39V63H59.7v2.67h4.35v1.65H57.58V57.18h6.47v1.65Z"/><path class="cls-2" d="M74,59.12a.79.79,0,0,1-.2.23.44.44,0,0,1-.26.07.64.64,0,0,1-.33-.11l-.42-.23a4,4,0,0,0-.55-.23,2.17,2.17,0,0,0-.72-.11,1.59,1.59,0,0,0-1.09.33,1.09,1.09,0,0,0-.36.85.8.8,0,0,0,.2.56,1.75,1.75,0,0,0,.53.38,4.85,4.85,0,0,0,.74.29l.85.28a7.54,7.54,0,0,1,.85.35,3,3,0,0,1,.74.51,2.34,2.34,0,0,1,.53.75,2.64,2.64,0,0,1,.2,1.08,3.47,3.47,0,0,1-.24,1.3,3.09,3.09,0,0,1-.7,1.06,3.24,3.24,0,0,1-1.12.71,4.18,4.18,0,0,1-1.52.26,4.81,4.81,0,0,1-1-.1,5.56,5.56,0,0,1-.92-.27,5.07,5.07,0,0,1-.84-.42,3.67,3.67,0,0,1-.69-.55l.62-1a.63.63,0,0,1,.2-.19.52.52,0,0,1,.27-.07.73.73,0,0,1,.4.14l.48.31a3.9,3.9,0,0,0,.63.31,2.38,2.38,0,0,0,.87.14,1.73,1.73,0,0,0,1.14-.34,1.23,1.23,0,0,0,.4-1,.94.94,0,0,0-.2-.62,1.6,1.6,0,0,0-.52-.4,4.13,4.13,0,0,0-.73-.28l-.85-.26a6.92,6.92,0,0,1-.85-.34,2.61,2.61,0,0,1-.74-.52,2.44,2.44,0,0,1-.52-.8,3.07,3.07,0,0,1-.2-1.18A2.81,2.81,0,0,1,69,58a3.29,3.29,0,0,1,1.07-.67,3.91,3.91,0,0,1,1.45-.25,4.94,4.94,0,0,1,1.7.28,3.8,3.8,0,0,1,1.32.79Z"/><path class="cls-2" d="M81.27,67.33H79.16V57.18h2.11Z"/><path class="cls-2" d="M91.25,62.16h3.49v4.19a5.46,5.46,0,0,1-1.66.83,6.47,6.47,0,0,1-1.86.26A6.31,6.31,0,0,1,89,67.06,5.12,5.12,0,0,1,87.22,66a4.77,4.77,0,0,1-1.11-1.65,5.4,5.4,0,0,1-.39-2.08,5.66,5.66,0,0,1,.38-2.09,4.68,4.68,0,0,1,1.07-1.64,4.86,4.86,0,0,1,1.68-1.07,6,6,0,0,1,2.2-.39,6.46,6.46,0,0,1,1.18.1,5.7,5.7,0,0,1,1,.28,4.75,4.75,0,0,1,1.55,1l-.61.94a.57.57,0,0,1-.36.27.67.67,0,0,1-.49-.11l-.49-.28A3.75,3.75,0,0,0,92.3,59a3.59,3.59,0,0,0-.59-.14,5,5,0,0,0-.74,0,3.23,3.23,0,0,0-1.28.25,2.74,2.74,0,0,0-1,.69,3.11,3.11,0,0,0-.62,1.08,4.3,4.3,0,0,0-.22,1.41,4.4,4.4,0,0,0,.24,1.5,3.11,3.11,0,0,0,.67,1.12,2.87,2.87,0,0,0,1,.69,4,4,0,0,0,2.25.14,4.52,4.52,0,0,0,.77-.28V63.71H91.69a.45.45,0,0,1-.32-.11.37.37,0,0,1-.12-.28Z"/><path class="cls-2" d="M108.07,57.18V67.33H107a1,1,0,0,1-.41-.08,1,1,0,0,1-.33-.28l-5.06-6.44c0,.16,0,.32,0,.48s0,.31,0,.44v5.87H99.37V57.18h1.33a.51.51,0,0,1,.17,0l.15.1.15.17,5.1,6.47c0-.18,0-.35,0-.51s0-.32,0-.47V57.18Z"/></svg>